<svg width="48" height="48" viewBox="0 0 48 48" fill="none" xmlns="http://www.w3.org/2000/svg">
<circle cx="24" cy="24" r="23" stroke="#5135FF" stroke-width="2"/>
<circle cx="24" cy="24" r="20" fill="#E3E3E3"/>
<mask id="mask0_7_549" style="mask-type:alpha" maskUnits="userSpaceOnUse" x="4" y="4" width="40" height="40">
<circle cx="24" cy="24" r="20" fill="#F0F0F0"/>
</mask>
<g mask="url(#mask0_7_549)">
<path d="M24.2323 32C19.2131 32 14.7494 34.4235 11.9077 38.1844C11.296 38.9939 10.9902 39.3986 11.0002 39.9456C11.008 40.3682 11.2733 40.9013 11.6058 41.1623C11.985 41.4598 12.493 41.4952 13.4242 41.4994C13.5766 41.5001 13.6527 41.5005 13.725 41.5114C13.7898 41.5213 13.8517 41.5369 13.9134 41.5591C13.9822 41.5838 14.0478 41.6189 14.1791 41.6891L18.5 44L25 45L30 44L34.2839 41.6915C34.4157 41.6204 34.4817 41.5849 34.5509 41.5599C34.6129 41.5374 34.6752 41.5215 34.7404 41.5116C34.8131 41.5005 34.8898 41.5001 35.0431 41.4994C35.9726 41.4951 36.48 41.4595 36.8589 41.1623C37.1914 40.9013 37.4567 40.3682 37.4645 39.9456C37.4745 39.3986 37.1687 38.9939 36.557 38.1844C33.7153 34.4235 29.2516 32 24.2323 32Z" fill="white"/>
<path d="M24.2323 27.25C28.1674 27.25 31.3573 24.06 31.3573 20.125C31.3573 16.19 28.1674 13 24.2323 13C20.2973 13 17.1073 16.19 17.1073 20.125C17.1073 24.06 20.2973 27.25 24.2323 27.25Z" fill="white"/>
</g>
</svg>
